<?xml version="1.0" standalone="no"?>
<!DOCTYPE svg PUBLIC "-//W3C//DTD SVG 20010904//EN"
 "http://www.w3.org/TR/2001/REC-SVG-20010904/DTD/svg10.dtd">
<svg version="1.0" xmlns="http://www.w3.org/2000/svg"
 width="280.000000pt" height="280.000000pt" viewBox="0 0 280.000000 280.000000"
 preserveAspectRatio="xMidYMid meet">

<g transform="translate(0.000000,280.000000) scale(0.100000,-0.100000)"
fill="#000000" stroke="none">
<path d="M2145 2164 c-38 -7 -112 -28 -162 -46 l-93 -32 0 -98 c0 -54 2 -98 5
-98 3 0 34 14 68 31 117 59 193 81 310 86 105 5 109 5 171 -26 103 -50 149
-126 149 -241 1 -149 -63 -238 -458 -650 -50 -52 -128 -134 -173 -181 l-82
-85 0 -87 0 -87 460 0 460 0 0 80 0 80 -334 0 c-217 0 -337 4 -341 10 -4 6 65
86 153 178 379 399 434 466 483 589 20 48 24 77 24 168 0 104 -2 114 -33 180
-92 194 -330 284 -607 229z"/>
<path d="M100 2078 c-117 -60 -117 -226 0 -285 55 -28 82 -29 135 -3 123 60
111 250 -18 299 -42 16 -68 14 -117 -11z"/>
<path d="M660 2078 c-108 -55 -120 -201 -24 -274 47 -36 128 -40 171 -8 98 73
99 205 2 276 -41 31 -97 33 -149 6z"/>
<path d="M1245 2093 c-63 -16 -115 -88 -115 -158 0 -91 66 -159 155 -159 156
-2 214 202 85 295 -27 20 -92 31 -125 22z"/>
<path d="M104 1520 c-33 -13 -82 -77 -90 -115 -20 -111 68 -207 177 -192 186
25 168 319 -20 316 -25 0 -55 -4 -67 -9z"/>
<path d="M650 1508 c-57 -39 -75 -72 -75 -138 0 -63 16 -95 69 -134 40 -30
130 -29 172 1 90 64 85 216 -8 273 -46 28 -115 27 -158 -2z"/>
<path d="M1206 1510 c-73 -47 -98 -154 -53 -221 71 -105 207 -104 266 1 43 77
14 187 -61 226 -40 20 -117 18 -152 -6z"/>
<path d="M110 959 c-36 -15 -70 -49 -86 -88 -27 -64 -14 -124 39 -179 99 -102
259 -28 259 120 0 109 -112 187 -212 147z"/>
<path d="M665 956 c-85 -38 -119 -140 -75 -225 73 -144 290 -90 290 72 0 120
-111 199 -215 153z"/>
<path d="M1225 956 c-90 -39 -123 -164 -65 -246 60 -85 189 -83 253 2 14 18
22 48 25 85 3 49 0 64 -20 93 -49 72 -122 97 -193 66z"/>
</g>
</svg>
